HIERARCHY
ROOT pelvis
{
  OFFSET 0 100 0
  CHANNELS 6 Xposition Yposition Zposition Zrotation Xrotation Yrotation
  JOINT pelvis_right_femur
  {
    OFFSET -10.78128 -3.44521 -0.5502486
    CHANNELS 3 Zrotation Xrotation Yrotation
    JOINT right_femur_tibia
    {
      OFFSET -0.8047443 -44.0398 -0.1307829
      CHANNELS 3 Zrotation Xrotation Yrotation
      JOINT right_tibia_foot
      {
        OFFSET 3.006224 -47.83518 -5
        CHANNELS 3 Zrotation Xrotation Yrotation
        End Site
        {
          OFFSET 0 -5 15
        }
      }
    }
  }
  JOINT pelvis_left_femur
  {
    OFFSET 10.78128 -3.44521 -0.5502486
    CHANNELS 3 Zrotation Xrotation Yrotation
    JOINT left_femur_tibia
    {
      OFFSET 0.8047443 -44.0398 -0.1307829
      CHANNELS 3 Zrotation Xrotation Yrotation
      JOINT left_tibia_foot
      {
        OFFSET -4.370144 -48.10324 -4.275266
        CHANNELS 3 Zrotation Xrotation Yrotation
        End Site
        {
          OFFSET 0 -5 15
        }
      }
    }
  }
  JOINT pelvis_spine1
  {
    OFFSET 0 6.468898 -3.129235
    CHANNELS 3 Zrotation Xrotation Yrotation
    JOINT spine1
    {
      OFFSET 0 23.15396 4.99043
      CHANNELS 3 Zrotation Xrotation Yrotation
      JOINT spine2
      {
        OFFSET 0 20.79997 -5.064912
        CHANNELS 3 Zrotation Xrotation Yrotation
        JOINT neck
        {
          OFFSET 0 14.38658 9.616178
          CHANNELS 3 Zrotation Xrotation Yrotation
          End Site
          {
            OFFSET 0 20 0
          }
        }
      }
      JOINT right_manubrium
      {
        OFFSET -5.722621 16.35077 3.967754
        CHANNELS 3 Zrotation Xrotation Yrotation
        JOINT right_clavicle
        {
          OFFSET -13.16364 1.694482 -4.693211
          CHANNELS 3 Zrotation Xrotation Yrotation
          JOINT right_humerus
          {
            OFFSET -28.5034 -0.3100689 -2.792744
            CHANNELS 3 Zrotation Xrotation Yrotation
            JOINT right_radius
            {
              OFFSET -25.15693 0.02248979 -1.271978
              CHANNELS 3 Zrotation Xrotation Yrotation
              End Site
              {
                OFFSET -15 0 0
              }
            }
          }
        }
      }
      JOINT left_manubrium
      {
        OFFSET 5.722621 16.35077 3.967754
        CHANNELS 3 Zrotation Xrotation Yrotation
        JOINT left_clavicle
        {
          OFFSET 13.16364 1.694482 -4.693211
          CHANNELS 3 Zrotation Xrotation Yrotation
          JOINT left_humerus
          {
            OFFSET 29.39168 -1.063119 -2.237045
            CHANNELS 3 Zrotation Xrotation Yrotation
            JOINT left_radius
            {
              OFFSET 24.59957 -0.9528479 0.9047498
              CHANNELS 3 Zrotation Xrotation Yrotation
              End Site
              {
                OFFSET 15 -0 -0
              }
            }
          }
        }
      }
    }
  }
}
MOTION
Frames: 21
Frame Time: 0.0416666666667
-798.9691 110.6571 2545.959 -5.676531 -7.1262 -43.09145 -0.8884787 -6.802401 -1.543738 -0 38.66756 -0 -11.92687 2.908591 -1.139724 -5.064278 6.854831 -13.71783 -0 9.649444 -0 -2.075476 -16.03411 19.01226 -0.5589153 0.0008330886 3.059736 0.3086373 11.54351 -4.979302 2.641385 25.55446 5.038454 1.402789 -21.61797 8.699706 -4.443436 -20.14236 10.24874 94.38243 17.47967 -15.08599 -0 0 8.317846 -20.64931 7.786272 10.21883 3.870035 -20.84305 -6.316741 -90.09215 22.20653 17.33766 0 0 -12.29166 7.628728 16.39997 4.220228
-801.4096 110.4438 2549.215 -4.636503 -6.107127 -42.54828 -0.7770538 -11.38462 -0.8368622 -0 34.89826 -0 -10.11144 -1.578533 -2.331942 -5.23403 9.771576 -15.27153 -0 6.602082 -0 -2.659324 -18.22573 18.64935 -0.5809125 -0.1621742 2.68703 0.54771 11.21899 -5.498408 2.602126 25.45478 5.249581 1.468951 -21.44571 8.758698 -4.199074 -19.02927 9.999984 95.03576 17.31139 -17.11917 -0 0 6.430136 -19.95681 7.543946 9.523385 4.176439 -21.81439 -6.330203 -88.3572 22.90037 14.31798 0 0 -16.09654 7.352859 15.47414 5.102069
-803.4194 109.9941 2551.967 -2.950822 -4.351067 -42.10903 -0.03655547 -15.42963 0.9340185 -0 31.49106 -0 -8.094832 -6.414238 -3.148901 -5.612362 11.47464 -17.11109 -0 4.210778 -0 -1.690115 -19.94801 19.23666 -0.8463861 -0.04691856 2.239101 0.7584704 10.51605 -5.746019 2.565026 25.47225 5.496621 1.657165 -21.21003 8.822697 -3.664705 -17.8047 9.72169 94.84029 17.58258 -18.10738 -0 0 5.174035 -19.30322 7.245324 9.031282 4.678886 -22.01902 -6.005455 -87.03636 23.61084 11.40737 0 0 -18.00869 7.248814 14.76911 5.221351
-805.0957 109.4984 2554.344 -1.106256 -2.224084 -41.80848 1.418235 -19.40782 3.280828 -0 28.96108 -0 -6.458188 -9.7465 -3.335058 -6.137061 12.02821 -18.49668 -0 3.258349 -0 1.480947 -20.58633 20.83299 -1.269255 0.2602689 1.83237 0.9693382 9.881639 -5.839935 2.426161 25.4989 5.857165 2.026898 -21.01714 8.818293 -2.840161 -16.73632 9.685739 93.98147 18.24212 -18.27767 -0 0 4.512464 -19.02524 7.163304 8.914487 5.215712 -21.66607 -5.672923 -86.29872 23.87133 9.228836 0 0 -18.21699 7.450574 14.32058 4.406022
-806.746 108.9349 2556.704 0.08517234 -0.6723156 -41.57965 2.774954 -23.26437 4.391953 -0 26.10026 -0 -5.732025 -9.815827 -2.833315 -6.525499 12.19097 -18.5704 -0 3.471224 -0 4.947654 -20.37333 22.01631 -1.58179 0.592779 1.598906 1.06715 9.620104 -5.816263 2.202319 25.3843 6.284358 2.539515 -20.85325 8.701536 -1.871396 -16.01903 9.887017 92.908 19.38277 -18.00831 -0 0 4.27311 -19.24722 7.441603 9.215552 5.623835 -21.23305 -5.545017 -86.0326 23.37387 8.148025 0 0 -17.67446 7.923203 13.9852 3.120853
-808.6849 108.141 2559.389 0.3532408 -0.2203811 -41.3208 3.236577 -26.38569 3.281713 -0 21.91023 -0 -5.855076 -6.993936 -1.938842 -6.61237 12.69974 -17.26208 -0 4.278889 -0 6.393652 -20.28135 21.59364 -1.678765 0.8334551 1.496829 1.029709 9.643479 -5.723136 1.96883 25.16238 6.695069 3.071754 -20.74289 8.542869 -1.000326 -15.60908 10.15588 92.02209 20.76166 -17.6775 -0 0 4.183001 -19.71285 7.890389 9.66257 5.913175 -21.02854 -5.600687 -85.94539 22.35137 7.781313 0 0 -17.23601 8.660795 13.80779 1.645565
-811.0736 107.1116 2562.542 0.128224 -0.4676573 -41.0119 3.060415 -28.58309 0.9476448 -0 17.11465 -0 -6.430461 -3.083495 -0.9903386 -6.548002 13.6548 -15.3459 -0 5.843331 -0 6.02614 -20.55135 20.11594 -1.634111 0.9318279 1.427388 0.925314 9.803737 -5.643892 1.740603 24.91307 7.072875 3.56112 -20.7018 8.391686 -0.3508791 -15.40135 10.41038 91.48674 22.05035 -17.55706 -0 0 4.067112 -20.22342 8.31744 10.01072 6.182025 -21.1466 -5.80978 -85.79895 21.03615 7.589286 0 0 -17.35487 9.711375 13.85095 -0.1048206
-813.9627 105.9835 2566.187 -0.1891096 -0.9066033 -40.66797 2.745118 -30.09901 -1.529917 -0 12.63163 -0 -7.18314 0.7630707 -0.1193342 -6.494812 14.89214 -13.40368 -0 8.395284 -0 4.83025 -20.9323 18.31531 -1.535781 0.8602987 1.373203 0.8008529 10.05925 -5.641384 1.500896 24.66595 7.402069 3.992816 -20.69433 8.217052 0.03014841 -15.38245 10.64216 91.33404 23.04491 -17.77136 -0 0 3.967792 -20.73772 8.623695 10.14127 6.499536 -21.61336 -6.177296 -85.50852 19.48212 7.349596 0 0 -18.21236 11.07986 14.07004 -2.226451
-817.364 104.9078 2570.311 -0.4918032 -1.367013 -40.30266 2.493049 -30.89185 -3.663634 -0 8.881569 -0 -7.897378 4.072336 0.5033829 -6.473364 16.23335 -11.52907 -0 11.97956 -0 3.187928 -21.18024 16.38514 -1.438538 0.6041841 1.398896 0.676813 10.43008 -5.758272 1.237122 24.40671 7.626929 4.35556 -20.65728 7.932695 0.1301031 -15.59639 10.8594 91.53117 23.64161 -18.34324 -0 0 4.069733 -21.25399 8.761544 9.999053 6.882031 -22.42564 -6.686869 -85.10201 17.71516 7.105847 0 0 -19.8119 12.64478 14.31967 -4.621376
-821.2635 104.0311 2574.885 -0.8054115 -1.818958 -39.94252 2.466219 -30.70168 -5.013608 -0 6.266911 -0 -8.300102 6.469868 0.5820853 -6.415397 17.41707 -9.716196 -0 16.62196 -0 1.359583 -20.94528 14.46315 -1.354388 0.1828756 1.567724 0.5866588 10.91529 -6.021989 0.959833 24.1212 7.681983 4.608323 -20.58112 7.494329 -0.05043636 -16.04834 11.06114 92.03675 23.75478 -19.25596 -0 0 4.453862 -21.71558 8.718595 9.580583 7.279901 -23.51452 -7.27249 -84.64895 15.9117 6.971373 0 0 -22.00958 14.13104 14.44818 -6.932497
-825.6034 103.5035 2579.835 -1.196591 -2.228927 -39.64831 2.868334 -29.34724 -5.135531 -0 5.284702 -0 -8.237123 7.61278 -0.08185535 -6.204828 18.04424 -8.085617 -0 22.37713 -0 -0.1593209 -19.75462 12.88137 -1.259397 -0.3109986 1.840759 0.5778361 11.41553 -6.391819 0.7169078 23.85725 7.570468 4.679763 -20.57059 7.025218 -0.4891736 -16.62512 11.23051 92.79279 23.32766 -20.38367 -0 0 4.892849 -22.02605 8.529562 9.012579 7.578718 -24.65333 -7.805938 -84.23104 14.47075 6.98096 0 0 -24.40475 15.20579 14.45745 -8.653799
-830.2567 103.4728 2585.017 -1.723096 -2.496248 -39.52278 3.832405 -26.88044 -3.868579 -0 6.24819 -0 -7.966211 7.300322 -1.302431 -5.717933 17.56705 -6.906277 -0 29.31729 -0 -0.8167356 -17.25042 12.03669 -1.134812 -0.7324145 2.070483 0.672754 11.74974 -6.740426 0.585709 23.72776 7.387007 4.511524 -20.77419 6.790521 -1.118375 -17.12782 11.33969 93.68407 22.39906 -21.44042 -0 0 4.977647 -22.12189 8.270437 8.549881 7.654725 -25.49362 -8.125925 -83.93448 13.86824 7.063124 0 0 -26.35628 15.634 14.53598 -9.345829
-835.0186 104.0487 2590.22 -2.371654 -2.495808 -39.6719 5.265842 -23.56081 -1.659114 -0 8.727884 -0 -8.203715 5.707865 -2.43041 -4.929197 15.41816 -6.387446 -0 37.39662 -0 -0.46915 -13.58376 12.02622 -0.9989294 -0.98025 2.144065 0.8452462 11.80228 -6.951947 0.6301711 23.81183 7.211227 4.118906 -21.21252 6.949078 -1.830163 -17.42629 11.35881 94.55078 21.11833 -22.12865 -0 0 4.558855 -21.98371 8.007858 8.361204 7.455456 -25.80888 -8.132266 -83.83967 14.34576 7.166204 0 0 -27.30329 15.34067 14.83706 -8.792496
-839.6587 105.2281 2595.233 -3.061207 -2.368726 -40.12683 6.719175 -19.54221 0.4205081 -0 11.29861 -0 -9.498067 3.522272 -2.848815 -4.026325 11.4092 -6.328322 -0 46.11206 -0 0.4206541 -9.661899 12.51397 -0.8598544 -1.010934 2.094123 1.012575 11.63123 -6.976458 0.8807377 24.10389 7.006308 3.594362 -21.70745 7.407862 -2.512282 -17.55382 11.25718 95.22189 19.74798 -22.21397 -0 0 3.987271 -21.61579 7.772992 8.381052 6.98598 -25.57112 -7.85486 -84.0652 15.78102 7.462816 0 0 -26.80233 14.391 15.32425 -7.050765
-844.0158 106.8416 2599.928 -3.743427 -2.650389 -40.8263 7.556794 -14.62892 1.433865 -0 12.5899 -0 -11.402 1.381634 -2.647642 -3.25331 5.917492 -6.25884 -0 54.01506 -0 1.276233 -6.646512 13.17116 -0.6679013 -0.7923434 2.067131 1.04351 11.45501 -6.766912 1.324391 24.56765 6.668891 3.037357 -22.02528 7.948829 -3.120296 -17.72673 11.04074 95.56373 18.62036 -21.43289 -0 0 3.906752 -21.12816 7.582028 8.476503 6.236924 -24.78735 -7.457731 -84.84927 17.75371 8.5186 0 0 -24.34354 13.02272 15.90448 -4.531215
-848.0305 108.5733 2604.284 -4.353404 -3.615223 -41.65946 7.515282 -8.643466 1.441574 -0 12.48809 -0 -12.78448 -0.9068406 -2.310292 -2.569845 -0.7003104 -6.041913 -0 58.80552 -0 1.707027 -4.980434 13.84796 -0.4180024 -0.4156656 2.279475 0.8497153 11.54833 -6.274701 1.856786 25.08944 6.132886 2.465704 -22.11984 8.373971 -3.746806 -18.39012 10.82865 95.55141 17.91761 -19.59314 -0 0 4.908954 -20.83706 7.501775 8.748363 5.233393 -23.52234 -7.146428 -86.4862 19.55764 11.19283 0 0 -19.87448 11.54909 16.54693 -1.89451
-851.7165 110.0285 2608.363 -4.554923 -4.697168 -42.45573 6.766067 -2.003334 1.130459 -0 11.51285 -0 -12.77199 -4.117311 -1.881645 -1.706287 -8.354785 -5.788796 -0 58.46297 -0 1.229919 -4.344432 14.36722 -0.2127091 -0.1937286 2.915723 0.5084044 12.02814 -5.617251 2.310603 25.3301 5.358677 1.800711 -22.13146 8.50389 -4.49864 -19.98821 10.7823 95.26373 17.53781 -16.95824 -0 0 7.326345 -21.01676 7.77135 9.474255 4.146592 -22.10989 -6.973071 -88.85143 20.34609 15.76987 0 0 -14.67936 10.12036 17.14917 0.372482
-855.1688 110.8475 2612.295 -3.957212 -4.99989 -43.0274 5.610695 4.26993 0.9744329 -0 9.927451 -0 -11.261 -8.456087 -1.065938 -0.4397977 -16.30418 -5.273472 -0 52.33924 -0 -0.3076887 -4.23304 14.9291 -0.1031104 -0.314348 3.862845 0.207507 12.65468 -5.061281 2.581268 25.00664 4.393881 1.016775 -22.08247 8.268178 -5.213369 -22.3378 10.85125 94.67836 17.35078 -14.13372 -0 0 10.97776 -21.46303 8.589838 10.69643 3.201612 -20.87511 -6.77099 -91.19126 19.93447 21.17806 0 0 -10.47515 8.682688 17.44228 2.28996
-858.5129 110.868 2616.212 -3.129644 -4.334945 -43.37777 4.893772 9.290731 0.9885259 -0 8.064971 -0 -9.466538 -12.51542 -0.04608104 1.492107 -22.60362 -3.876291 -0 41.80743 -0 -1.950303 -4.049199 15.95957 -0.08294751 -0.5963048 4.742952 -0.01247926 12.90065 -4.571755 2.691717 24.35598 3.50553 0.2846345 -21.84884 7.872696 -5.610079 -24.62337 10.7496 93.56148 17.36334 -11.25434 -0 0 15.15192 -21.83403 9.650701 12.2448 2.613585 -19.66452 -6.269285 -93.09135 19.16176 26.00572 0 0 -7.439508 7.110252 17.29512 4.226243
-861.7992 110.2194 2620.266 -3.428756 -3.534137 -43.70398 5.570011 12.43557 1.120101 -0 7.192426 -0 -8.84198 -14.17579 0.4022241 4.016968 -25.35816 -1.468054 -0 29.81641 -0 -1.935215 -3.29801 16.55599 -0.04890159 -0.8355775 5.350373 -0.2203465 12.53023 -4.004467 2.707464 23.73925 2.939225 -0.1948023 -21.47853 7.557992 -5.721387 -26.31579 10.35152 91.9431 17.57909 -8.300918 -0 0 19.21462 -22.11204 10.43809 13.86777 2.453654 -18.31395 -5.409799 -94.6232 18.5761 29.6835 0 0 -4.939292 5.663413 16.86913 5.990463
-865.0779 109.3005 2624.627 -4.526402 -3.284025 -44.15255 6.474339 13.97446 1.684898 -0 8.750397 -0 -8.559008 -14.274 -0.01108174 5.473219 -25.09798 0.1203553 -0 20.01653 -0 0.03728647 -2.450713 16.25176 0.05994915 -0.8745588 5.616358 -0.3888186 11.81941 -3.485594 2.695601 23.44888 2.775941 -0.3298374 -21.21245 7.472543 -5.751434 -27.15889 9.867508 90.42486 18.07218 -5.894769 -0 0 22.06997 -22.29972 10.56259 14.98383 2.551677 -17.09642 -4.527509 -95.54039 18.17881 31.70013 0 0 -2.774681 5.157152 16.61854 6.472927
